<?xml version="1.0" standalone="no"?>
<!DOCTYPE svg PUBLIC "-//W3C//DTD SVG 20010904//EN"
 "http://www.w3.org/TR/2001/REC-SVG-20010904/DTD/svg10.dtd">
<svg version="1.0" xmlns="http://www.w3.org/2000/svg"
 width="256.000000pt" height="256.000000pt" viewBox="0 0 256.000000 256.000000"
 preserveAspectRatio="xMidYMid meet">

<g transform="translate(0.000000,256.000000) scale(0.100000,-0.100000)"
fill="#000000" stroke="none">
<path d="M1578 2473 c7 -3 16 -2 19 1 4 3 -2 6 -13 5 -11 0 -14 -3 -6 -6z"/>
<path d="M2288 2453 c-3 -4 -5 -62 -7 -128 -1 -66 -6 -121 -11 -123 -5 -2 -6
-10 -3 -18 3 -8 -2 -25 -11 -39 -12 -18 -14 -38 -10 -83 7 -62 -5 -102 -30
-102 -11 0 -12 6 -4 28 8 20 7 47 -4 102 -10 49 -12 85 -7 105 5 16 9 63 9
103 0 99 -12 101 -101 18 -63 -58 -76 -66 -110 -66 -38 0 -53 15 -25 26 8 3
12 12 9 21 -5 13 -3 13 15 4 11 -6 23 -8 25 -4 3 5 -18 18 -47 30 -28 13 -43
17 -34 10 15 -12 15 -14 -4 -26 -17 -10 -22 -10 -33 6 -12 15 -12 20 2 30 21
16 21 16 -52 47 -43 19 -54 21 -37 8 28 -22 16 -37 -36 -44 -27 -4 -35 -1 -41
16 -6 16 -18 21 -52 22 -24 1 -60 6 -79 10 -19 4 -137 8 -261 8 -186 0 -237
-4 -285 -18 -94 -28 -145 -46 -209 -76 -33 -15 -81 -37 -107 -48 -25 -11 -74
-42 -108 -69 -78 -60 -203 -186 -221 -221 -7 -15 -21 -38 -30 -52 -9 -14 -20
-36 -24 -50 -4 -14 -14 -33 -22 -42 -9 -10 -12 -25 -8 -37 4 -15 2 -21 -9 -21
-25 0 -56 -74 -73 -173 -19 -109 -19 -105 -10 -232 7 -102 -2 -147 -23 -115
-15 23 -13 -7 6 -93 21 -96 102 -257 167 -332 85 -98 191 -199 228 -217 308
-150 382 -170 619 -171 188 -1 303 13 370 45 175 82 190 84 190 18 0 -23 4
-39 9 -36 5 3 8 38 7 77 -1 44 3 74 11 81 6 5 10 15 7 22 -3 7 2 19 11 26 8 7
15 11 16 9 1 -8 6 -45 13 -99 4 -42 12 -60 31 -75 28 -23 33 -37 10 -29 -8 4
-15 1 -15 -6 0 -7 -8 -9 -20 -5 -11 4 -20 2 -20 -4 0 -6 -14 -11 -30 -11 -29
0 -30 -1 -18 -25 17 -32 220 -209 265 -230 18 -9 61 -41 95 -71 98 -87 138
-85 150 7 5 30 5 164 2 299 -3 135 -7 400 -8 590 -2 304 -5 350 -20 388 -10
23 -21 42 -25 42 -23 0 -33 -63 -32 -192 1 -91 -2 -138 -9 -143 -6 -4 -13 -5
-16 -3 -2 3 -7 59 -11 126 l-6 122 -213 0 c-131 0 -215 4 -219 10 -10 16 -25
12 -19 -5 8 -19 -10 -20 -25 -1 -13 16 -69 31 -78 22 -3 -3 30 -43 74 -88 87
-89 123 -145 124 -193 0 -29 0 -29 10 -6 6 16 6 35 -2 58 -9 29 -8 37 7 54 9
10 21 19 26 19 12 0 10 -238 -2 -282 -15 -51 -81 -137 -138 -176 -118 -83
-234 -113 -427 -111 -101 1 -136 6 -223 31 -56 16 -124 40 -151 53 -43 22 -48
28 -49 61 -2 41 14 68 32 57 6 -3 3 3 -7 14 -21 24 -22 33 -3 33 7 0 33 -21
57 -47 24 -27 54 -53 66 -60 12 -6 -9 19 -46 57 -66 66 -70 72 -106 181 -20
63 -45 128 -55 144 -23 37 -24 75 -17 393 2 110 3 114 29 137 15 13 43 55 62
94 47 96 111 185 154 214 137 90 189 115 275 132 137 27 273 17 412 -29 146
-49 219 -86 283 -140 136 -117 249 -170 280 -133 17 21 13 570 -4 587 -7 7
-14 8 -16 3z m-803 -173 c17 -6 15 -8 -15 -13 -19 -3 -91 -9 -160 -12 -71 -4
-131 -12 -139 -18 -7 -6 -19 -12 -25 -13 -40 -3 -96 -18 -96 -26 0 -6 -7 -8
-15 -4 -15 5 -73 -23 -107 -52 -18 -15 -58 -8 -42 8 15 14 115 62 148 71 17 4
63 18 101 29 94 29 309 47 350 30z m370 -110 c3 -5 1 -10 -4 -10 -6 0 -11 5
-11 10 0 6 2 10 4 10 3 0 8 -4 11 -10z m105 -50 c0 -5 -4 -10 -10 -10 -5 0
-10 5 -10 10 0 6 5 10 10 10 6 0 10 -4 10 -10z m-1090 -10 c0 -5 -26 -36 -59
-68 -53 -52 -101 -122 -85 -122 3 0 -3 -8 -14 -17 -22 -20 -52 -92 -52 -124 0
-12 -6 -33 -14 -47 -32 -62 -37 -80 -37 -122 2 -100 -14 -265 -23 -251 -19 29
-19 167 -1 245 10 41 15 87 12 102 -3 20 1 32 14 43 12 9 23 37 28 66 15 87
38 125 146 241 55 59 85 78 85 54z m1150 -30 c0 -5 -2 -10 -4 -10 -3 0 -8 5
-11 10 -3 6 -1 10 4 10 6 0 11 -4 11 -10z m-1402 -69 c3 -8 -1 -12 -9 -9 -7 2
-15 10 -17 17 -3 8 1 12 9 9 7 -2 15 -10 17 -17z m-158 -415 c0 -2 -7 -6 -15
-10 -8 -3 -15 -1 -15 4 0 6 7 10 15 10 8 0 15 -2 15 -4z m1350 -251 c10 -12
10 -15 -4 -15 -9 0 -16 7 -16 15 0 8 2 15 4 15 2 0 9 -7 16 -15z m-1195 -82
c1 -47 -16 -24 -21 28 -5 38 -4 41 7 24 7 -11 13 -34 14 -52z m-365 -37 c0 -3
-4 -8 -10 -11 -5 -3 -10 -1 -10 4 0 6 5 11 10 11 6 0 10 -2 10 -4z m1988 -210
c-2 -46 -7 -61 -18 -61 -17 0 -26 79 -15 123 5 20 8 22 21 11 11 -9 14 -28 12
-73z m-1532 -24 c15 -31 29 -60 31 -64 2 -5 0 -8 -6 -8 -14 0 -71 99 -71 123
0 30 18 10 46 -51z m134 -36 c0 -11 -19 -15 -25 -6 -3 5 1 10 9 10 9 0 16 -2
16 -4z m1400 -95 c0 -26 -5 -52 -12 -59 -9 -9 -9 -17 2 -36 10 -19 12 -53 7
-133 -3 -59 -2 -128 1 -152 6 -39 9 -42 21 -28 18 23 31 21 31 -4 0 -12 -8
-23 -19 -26 -21 -5 -29 -32 -30 -101 -1 -24 -3 -48 -7 -53 -10 -17 -32 -9 -49
17 -16 25 -16 26 3 20 20 -7 20 -2 15 294 -3 165 -2 308 1 316 12 32 36 -5 36
-55z m-1400 49 c0 -5 -4 -10 -9 -10 -6 0 -13 5 -16 10 -3 6 1 10 9 10 9 0 16
-4 16 -10z m-70 -21 c0 -6 -4 -7 -10 -4 -5 3 -10 11 -10 16 0 6 5 7 10 4 6 -3
10 -11 10 -16z m76 -46 c-3 -8 -6 -19 -6 -25 0 -6 -9 -3 -20 7 -26 24 -25 30
6 31 19 2 24 -2 20 -13z m1034 -66 c0 -34 -216 -174 -318 -206 -40 -13 -76
-20 -80 -17 -9 10 18 25 58 32 57 9 125 50 283 171 47 36 57 39 57 20z m-473
-232 c-4 -10 -19 -15 -44 -14 l-38 0 40 18 c44 20 50 19 42 -4z m-376 -4 c-8
-5 -20 -7 -28 -4 -21 8 -15 13 15 13 20 0 23 -3 13 -9z m177 -9 c2 -7 -6 -12
-17 -12 -21 0 -27 11 -14 24 9 9 26 2 31 -12z m82 4 c0 -16 -18 -31 -27 -22
-8 8 5 36 17 36 5 0 10 -6 10 -14z m812 -170 c21 -17 38 -34 38 -38 0 -14 -22
-8 -44 11 -11 11 -34 32 -51 46 -29 25 -29 26 -5 19 14 -4 42 -21 62 -38z"/>
<path d="M260 1824 c0 -8 5 -12 10 -9 6 3 10 10 10 16 0 5 -4 9 -10 9 -5 0
-10 -7 -10 -16z"/>
</g>
</svg>
